<svg width="15" height="25" viewBox="0 0 15 25" fill="none" xmlns="http://www.w3.org/2000/svg">
<path d="M6.68987 17.2387C7.08039 17.6292 7.71356 17.6292 8.10408 17.2387L14.468 10.8747C14.8586 10.4842 14.8586 9.85101 14.468 9.46049C14.0775 9.06996 13.4444 9.06996 13.0538 9.46049L7.39697 15.1173L1.74012 9.46049C1.34959 9.06996 0.71643 9.06996 0.325905 9.46049C-0.0646191 9.85101 -0.0646191 10.4842 0.325905 10.8747L6.68987 17.2387ZM7.39697 0L6.39697 4.37114e-08L6.39697 16.5316L7.39697 16.5316L8.39697 16.5316L8.39697 -4.37114e-08L7.39697 0Z" fill="white"/>
<path d="M0 23.5691H14.7939" stroke="white" stroke-width="2"/>
</svg>
