<?xml version="1.0" encoding="UTF-8"?>
<svg id="Capa_1" xmlns="http://www.w3.org/2000/svg" version="1.1" viewBox="0 0 79.8 77.4">
  <!-- Generator: Adobe Illustrator 29.6.1, SVG Export Plug-In . SVG Version: 2.1.1 Build 9)  -->
  <path d="M73.1,37.2c-21.4-5.9-25.8-10.4-31.7-31.7-.2-.7-.8-1.1-1.5-1.1s-1.3.5-1.5,1.1c-5.9,21.4-10.4,25.8-31.7,31.7-.7.2-1.1.8-1.1,1.5s.5,1.3,1.1,1.5c21.4,5.9,25.8,10.4,31.7,31.7.2.7.8,1.1,1.5,1.1s1.3-.5,1.5-1.1c5.9-21.4,10.4-25.8,31.7-31.7.7-.2,1.1-.8,1.1-1.5s-.5-1.3-1.1-1.5Z"/>
</svg>