<?xml version="1.0" encoding="UTF-8"?>
<svg id="Capa_1" xmlns="http://www.w3.org/2000/svg" version="1.1" viewBox="0 0 110 99.2">
  <!-- Generator: Adobe Illustrator 29.6.1, SVG Export Plug-In . SVG Version: 2.1.1 Build 9)  -->
  <defs>
    <style>
      .st0 {
        fill: #bc5e5e;
      }
    </style>
  </defs>
  <path class="st0" d="M99.1,74.4L63.7,13.1c-1.8-3.2-5.1-5-8.7-5s-6.9,1.9-8.7,5L10.9,74.4c-1.8,3.2-1.8,6.9,0,10.1,1.8,3.2,5.1,5,8.7,5h70.7c3.6,0,6.9-1.9,8.7-5,1.8-3.2,1.8-6.9,0-10.1h0ZM49.3,73.8c0-3.1,2.5-5.7,5.7-5.7s5.7,2.5,5.7,5.7-2.5,5.7-5.7,5.7-5.7-2.6-5.7-5.7ZM60,60.9c-.1,2.7-2.3,4.7-5,4.7s-4.8-2.1-5-4.7l-1.2-26.8c0-1.7.5-3.3,1.7-4.6,1.2-1.2,2.8-1.9,4.5-1.9s3.3.7,4.5,1.9c1.2,1.2,1.8,2.9,1.7,4.6l-1.2,26.8Z"/>
</svg>